<svg xmlns="http://www.w3.org/2000/svg" viewBox="0 0 321 321">
    <g id="Group_1" data-name="Group 1" transform="translate(-607 -139)">
        <rect id="Rectangle_1" data-name="Rectangle 1" width="321" height="321" rx="15"
            transform="translate(607 139)" fill="#f2f2f2" />
        <path id="Path_1" data-name="Path 1"
            d="M127.56,241.884l-.093-.04-.293-.16q-2.575-1.417-5.108-2.908a335.847,335.847,0,0,1-56.606-42.281C34.768,167.858,2.25,125.363,2.25,73.025,2.25,33.972,35.115,3,74.782,3A73.359,73.359,0,0,1,132.3,30.37,73.359,73.359,0,0,1,189.822,3c39.654,0,72.518,30.971,72.518,70.024,0,52.351-32.518,94.846-63.209,123.456a335.78,335.78,0,0,1-56.606,42.281q-2.533,1.5-5.108,2.921l-.293.16-.093.053-.04.013a10.03,10.03,0,0,1-9.39,0l-.04-.013Z"
            transform="translate(635.205 176.462)" fill="#00aff0" />
        <path id="Path_2" data-name="Path 2"
            d="M58.11,2.21A49.654,49.654,0,0,1,40.5-.845,43.716,43.716,0,0,1,26-9.815a53.134,53.134,0,0,1-10.855-14.5A79.588,79.588,0,0,1,8.19-44.07a6.327,6.327,0,0,1,0-3.12,5.025,5.025,0,0,1,1.56-2.47,6.167,6.167,0,0,1,2.73-1.755,6.078,6.078,0,0,1,3.12.2,127.4,127.4,0,0,0,12.415,3.64,89.063,89.063,0,0,0,12.61,2.015q6.565.585,14.625.585a3.724,3.724,0,0,1,3.12,1.17,5.662,5.662,0,0,1,.91,3.51,6.453,6.453,0,0,1-.91,3.9,3.724,3.724,0,0,1-3.12,1.17q-7.02,0-12.675-.39A93.975,93.975,0,0,1,31.72-36.985,95.776,95.776,0,0,1,21.06-39.65a56,56,0,0,0,5.785,13.26,39.443,39.443,0,0,0,8.32,9.815,34.513,34.513,0,0,0,10.53,6.045A36.421,36.421,0,0,0,58.11-8.45,36.924,36.924,0,0,0,73-11.31,27.951,27.951,0,0,0,84.11-20.085,41.914,41.914,0,0,0,91.065-35.36a90.791,90.791,0,0,0,2.4-22.36V-70.07H68.25a2.639,2.639,0,0,1-2.47-1.365A7.8,7.8,0,0,1,65-75.27a7.734,7.734,0,0,1,.78-3.9,2.669,2.669,0,0,1,2.47-1.3H93.47v-46.67a90.079,90.079,0,0,1-12.22-2.99q-5.59-1.82-10.725-3.705t-10.14-3.185a41.465,41.465,0,0,0-10.465-1.3,22.733,22.733,0,0,0-9.1,1.69,17.04,17.04,0,0,0-6.37,4.615,18.825,18.825,0,0,0-3.64,6.825,28.813,28.813,0,0,0-1.17,8.32,3.929,3.929,0,0,1-1.43,3.315,7.21,7.21,0,0,1-4.42,1.1,6.756,6.756,0,0,1-4.095-1.1A3.857,3.857,0,0,1,18.2-116.87a36.809,36.809,0,0,1,1.95-11.96A31.007,31.007,0,0,1,26-139.1a26.691,26.691,0,0,1,10.01-7.15,35.946,35.946,0,0,1,14.17-2.6,52.079,52.079,0,0,1,11.635,1.235A89.962,89.962,0,0,1,72.41-144.5q5.2,1.885,10.6,3.705a104.55,104.55,0,0,0,11.44,3.12,63.463,63.463,0,0,0,13.325,1.3,47,47,0,0,0,11.44-1.365,56.657,56.657,0,0,0,10.205-3.575,52.637,52.637,0,0,0,8.385-4.81,4.9,4.9,0,0,1,3.9-.975,5.675,5.675,0,0,1,3.12,2.795,5.913,5.913,0,0,1,1.17,3.705,4.747,4.747,0,0,1-2.21,3.315,67.972,67.972,0,0,1-10.855,6.11,60.172,60.172,0,0,1-12.22,3.965,67.351,67.351,0,0,1-13.975,1.365h-1.95v45.37h21.06q3.25,0,3.25,5.2a7.8,7.8,0,0,1-.78,3.835,2.639,2.639,0,0,1-2.47,1.365H104.78v12.35q0,15.73-3.12,27.105T92.43-11.96A36.8,36.8,0,0,1,77.675-1.235,52.488,52.488,0,0,1,58.11,2.21Z"
            transform="translate(690.502 372.82)" fill="#f2f2f2" />
    </g>
</svg>